<svg class="illustration" viewBox="0 0 500 400" xmlns="http://www.w3.org/2000/svg">
  <path d="M420 120 Q450 100 480 120 Q490 80 460 70 Q470 40 440 50 Q430 20 400 30 Q390 0 370 20 Q340 10 350 40 Q320 30 330 60 Q300 70 320 90 Q290 100 310 120 Q330 110 350 120 Q370 130 390 120 Q410 130 420 120 Z" fill="white" opacity="0.8" />
  <rect x="50" y="200" width="80" height="150" rx="5" fill="white" opacity="0.9" />
  <rect x="70" y="220" width="15" height="15" rx="2" fill="#36cfc9" />
  <rect x="70" y="250" width="15" height="15" rx="2" fill="#36cfc9" />
  <rect x="70" y="280" width="15" height="15" rx="2" fill="#36cfc9" />
  <rect x="95" y="220" width="15" height="15" rx="2" fill="#36cfc9" />
  <rect x="95" y="250" width="15" height="15" rx="2" fill="#36cfc9" />
  <rect x="150" y="180" width="100" height="170" rx="5" fill="white" opacity="0.9" />
  <rect x="170" y="200" width="20" height="20" rx="3" fill="#409EFF" />
  <rect x="170" y="230" width="20" height="20" rx="3" fill="#409EFF" />
  <rect x="170" y="260" width="20" height="20" rx="3" fill="#409EFF" />
  <rect x="210" y="200" width="20" height="20" rx="3" fill="#409EFF" />
  <rect x="210" y="230" width="20" height="20" rx="3" fill="#409EFF" />
  <rect x="270" y="220" width="120" height="130" rx="5" fill="white" opacity="0.9" />
  <rect x="290" y="240" width="25" height="25" rx="4" fill="#722ed1" />
  <rect x="290" y="275" width="25" height="25" rx="4" fill="#722ed1" />
  <rect x="290" y="310" width="25" height="25" rx="4" fill="#722ed1" />
  <rect x="335" y="240" width="25" height="25" rx="4" fill="#722ed1" />
  <rect x="335" y="275" width="25" height="25" rx="4" fill="#722ed1" />
  <path d="M130 250 Q180 200 230 190" stroke="white" stroke-width="2" fill="none" stroke-dasharray="5,5" />
  <path d="M250 190 Q300 180 350 240" stroke="white" stroke-width="2" fill="none" stroke-dasharray="5,5" />
</svg> 